<svg width="500" height="400" xmlns="http://www.w3.org/2000/svg">
  <rect width="500" height="400" fill="#f8f9fa" rx="10"/>
  <text x="250" y="30" font-family="Arial" font-size="16" font-weight="bold" text-anchor="middle" fill="#2C3E50">Distribución de Colesterol por Nivel de Estrés</text>
  
  <line x1="60" y1="50" x2="60" y2="350" stroke="#333" stroke-width="2"/>
  <line x1="60" y1="350" x2="460" y2="350" stroke="#333" stroke-width="2"/>
  
  <line x1="60" y1="350" x2="460" y2="350" stroke="#ddd" stroke-dasharray="4"/>
  <text x="50" y="354" font-family="Arial" font-size="11" text-anchor="end" fill="#555">140</text>
  <line x1="60" y1="262" x2="460" y2="262" stroke="#ddd" stroke-dasharray="4"/>
  <text x="50" y="266" font-family="Arial" font-size="11" text-anchor="end" fill="#555">190</text>
  <line x1="60" y1="174" x2="460" y2="174" stroke="#ddd" stroke-dasharray="4"/>
  <text x="50" y="178" font-family="Arial" font-size="11" text-anchor="end" fill="#555">240</text>
  <line x1="60" y1="85" x2="460" y2="85" stroke="#ddd" stroke-dasharray="4"/>
  <text x="50" y="89" font-family="Arial" font-size="11" text-anchor="end" fill="#555">290</text>
  
  <g>
    <line x1="130" y1="332.3529" x2="130" y2="67.6471" stroke="#2C3E50" stroke-width="1.5"/>
    <line x1="115" y1="332.3529" x2="145" y2="332.3529" stroke="#2C3E50" stroke-width="1.5"/>
    <line x1="115" y1="67.6471" x2="145" y2="67.6471" stroke="#2C3E50" stroke-width="1.5"/>
    
    <rect x="100" y="134.7059" width="60" height="132.3529" fill="#4CAF50" stroke="#2C3E50" stroke-width="2" fill-opacity="0.75"/>
    
    <line x1="100" y1="200" x2="160" y2="200" stroke="#000" stroke-width="3"/>
    
    <text x="130" y="370" font-family="Arial" font-size="12" font-weight="bold" text-anchor="middle" fill="#2C3E50">Low</text>
  </g>
  <g>
    <line x1="260" y1="332.3529" x2="260" y2="67.6471" stroke="#2C3E50" stroke-width="1.5"/>
    <line x1="245" y1="332.3529" x2="275" y2="332.3529" stroke="#2C3E50" stroke-width="1.5"/>
    <line x1="245" y1="67.6471" x2="275" y2="67.6471" stroke="#2C3E50" stroke-width="1.5"/>
    
    <rect x="230" y="131.1765" width="60" height="134.1176" fill="#FFC107" stroke="#2C3E50" stroke-width="2" fill-opacity="0.75"/>
    
    <line x1="230" y1="196.4706" x2="290" y2="196.4706" stroke="#000" stroke-width="3"/>
    
    <text x="260" y="370" font-family="Arial" font-size="12" font-weight="bold" text-anchor="middle" fill="#2C3E50">Medium</text>
  </g>
  <g>
    <line x1="390" y1="332.3529" x2="390" y2="67.6471" stroke="#2C3E50" stroke-width="1.5"/>
    <line x1="375" y1="332.3529" x2="405" y2="332.3529" stroke="#2C3E50" stroke-width="1.5"/>
    <line x1="375" y1="67.6471" x2="405" y2="67.6471" stroke="#2C3E50" stroke-width="1.5"/>
    
    <rect x="360" y="134.7059" width="60" height="133.2353" fill="#F44336" stroke="#2C3E50" stroke-width="2" fill-opacity="0.75"/>
    
    <line x1="360" y1="200" x2="420" y2="200" stroke="#000" stroke-width="3"/>
    
    <text x="390" y="370" font-family="Arial" font-size="12" font-weight="bold" text-anchor="middle" fill="#2C3E50">High</text>
  </g>
  
  <text x="260" y="390" font-family="Arial" font-size="12" font-weight="bold" text-anchor="middle" fill="#2C3E50">Nivel de Estrés</text>
  <text x="20" y="200" font-family="Arial" font-size="12" font-weight="bold" text-anchor="middle" transform="rotate(-90 20 200)" fill="#2C3E50">Colesterol (mg/dL)</text>
</svg>
